<?xml version="1.0" standalone="no"?>
<!DOCTYPE svg PUBLIC "-//W3C//DTD SVG 20010904//EN"
 "http://www.w3.org/TR/2001/REC-SVG-20010904/DTD/svg10.dtd">
<svg version="1.0" xmlns="http://www.w3.org/2000/svg"
 width="1280.000000pt" height="681.000000pt" viewBox="0 0 1280.000000 681.000000"
 preserveAspectRatio="xMidYMid meet">
<metadata>
Created by potrace 1.15, written by Peter Selinger 2001-2017
</metadata>
<g transform="translate(0.000000,681.000000) scale(0.100000,-0.100000)"
fill="#000000" stroke="none">
<path d="M3135 6800 c-69 -9 -105 -31 -105 -65 0 -8 -22 -14 -61 -18 -36 -3
-65 -11 -72 -20 -13 -16 -53 -25 -149 -34 -66 -5 -75 -18 -22 -26 21 -4 52
-21 75 -41 34 -32 41 -34 64 -24 20 9 36 8 76 -5 71 -24 100 -21 186 13 49 20
80 27 86 21 13 -13 -43 -47 -121 -71 -47 -15 -78 -18 -122 -13 -50 5 -61 3
-66 -11 -3 -9 -1 -23 5 -30 19 -23 98 -56 132 -56 27 0 30 -2 19 -15 -24 -29
-170 -12 -170 19 0 7 -9 21 -19 30 -11 10 -21 30 -23 43 -2 21 -12 28 -46 38
-23 7 -54 21 -68 30 -31 20 -89 17 -89 -5 0 -8 -13 -22 -30 -30 -21 -11 -30
-22 -30 -40 0 -25 22 -37 100 -56 l30 -7 -32 -10 c-29 -9 -47 -37 -24 -37 5 0
11 -9 14 -20 8 -31 83 -28 132 5 37 25 37 26 66 7 l29 -18 -35 -17 c-35 -16
-47 -37 -22 -37 6 -1 0 -8 -15 -16 -45 -24 -35 -42 25 -48 265 -26 260 -26
303 -7 60 27 64 41 12 41 -24 1 -54 7 -68 15 -26 15 -22 18 21 16 60 -4 201
72 184 99 -4 6 -21 8 -42 4 -27 -5 -35 -4 -31 6 5 16 24 27 60 35 20 4 26 9
21 22 -5 13 -2 15 22 9 72 -18 86 -18 105 -1 10 9 62 40 116 68 103 55 125 77
78 77 -37 0 -22 12 51 40 33 13 68 31 78 40 18 17 17 18 -18 40 -30 18 -46 22
-93 18 -50 -5 -60 -2 -79 18 -21 23 -29 24 -136 24 -63 0 -141 2 -173 4 -32 3
-90 1 -129 -4z m462 -197 c4 -11 -48 -25 -57 -16 -7 7 32 34 44 30 5 -2 11 -8
13 -14z"/>
<path d="M4563 6803 c-7 -2 -13 -11 -13 -19 0 -18 -31 -18 -74 0 -27 11 -136
15 -188 7 -13 -2 -9 -51 4 -51 6 0 19 7 28 15 15 13 19 12 39 -9 38 -41 20
-49 -93 -44 -104 6 -149 -2 -144 -24 5 -22 -6 -23 -35 -3 -25 16 -29 16 -40 3
-8 -11 -39 -17 -100 -21 -99 -7 -141 -22 -145 -54 -5 -31 -19 -39 -90 -51 -63
-11 -132 -44 -132 -64 0 -7 21 -8 60 -4 69 8 73 2 30 -48 -20 -22 -43 -36 -67
-41 -21 -4 -42 -10 -48 -13 -5 -4 -23 -7 -40 -8 -43 -2 -108 -31 -103 -46 3
-8 35 -16 84 -21 43 -4 85 -9 92 -12 25 -9 1 -24 -59 -36 -66 -13 -81 -24 -47
-35 12 -3 29 -15 37 -25 20 -23 30 -24 211 -10 l145 12 20 -26 c11 -14 37 -46
58 -71 20 -25 37 -51 37 -58 0 -7 9 -21 19 -31 13 -11 21 -33 23 -63 3 -52 23
-66 38 -28 11 31 25 33 40 7 18 -34 11 -51 -27 -74 l-38 -22 35 -6 c42 -6 80
-26 80 -40 0 -6 -9 -22 -20 -36 -19 -24 -19 -27 -4 -44 15 -16 14 -19 -15 -34
-17 -8 -31 -22 -31 -30 0 -18 5 -18 32 -4 11 6 22 9 24 6 6 -6 -35 -85 -47
-93 -5 -3 -5 -14 1 -25 6 -11 8 -24 5 -29 -3 -6 -2 -10 4 -10 5 0 13 5 16 10
12 20 23 9 22 -23 -1 -54 98 -181 152 -193 54 -12 61 -16 61 -35 0 -27 23 -24
62 8 45 37 48 42 48 85 0 55 32 117 88 172 39 38 60 50 98 57 49 9 104 52 104
82 0 8 23 28 51 47 46 29 61 33 153 40 56 4 115 14 131 22 17 9 54 21 83 29
28 7 52 16 52 20 0 9 -64 19 -122 19 -45 0 -61 11 -37 25 5 4 14 18 19 31 13
34 62 34 78 -1 20 -43 72 -24 56 20 -11 28 -73 58 -120 57 -42 -1 -44 0 -38
24 5 19 1 29 -15 40 -29 21 -18 34 24 27 31 -5 36 -3 45 21 12 31 30 29 90 -9
65 -42 107 -42 60 0 -29 26 -25 32 26 40 43 6 45 8 30 24 -9 10 -16 22 -16 28
0 6 -16 14 -35 17 -47 9 -44 23 8 37 l42 12 -50 9 c-27 5 -52 11 -54 14 -12
12 28 24 77 24 39 0 52 4 52 15 0 9 -9 15 -23 15 -24 0 -62 32 -51 42 3 4 1
15 -5 26 -8 16 -6 21 14 30 13 6 32 24 42 39 10 15 27 36 38 45 19 17 18 17
-28 11 -40 -5 -47 -3 -42 9 7 17 47 28 101 28 22 0 37 6 43 18 5 10 34 25 63
35 30 9 62 23 73 31 18 13 13 15 -50 21 -48 6 -79 4 -104 -6 -20 -7 -65 -13
-101 -14 -36 0 -78 -5 -93 -9 -25 -7 -28 -6 -25 10 3 17 -5 19 -66 22 -83 4
-145 -9 -248 -48 -43 -17 -84 -30 -93 -30 -33 0 -12 19 53 48 91 40 159 59
259 71 48 6 99 19 120 31 l38 21 -75 -6 c-72 -5 -116 4 -91 19 46 29 -55 34
-214 11 -55 -8 -110 -15 -122 -15 -42 0 -23 19 35 37 l57 18 -65 6 c-79 8
-210 9 -227 2z"/>
<path d="M9693 6271 c-53 -61 -105 -78 -273 -91 -155 -12 -258 -29 -286 -46
-14 -8 -23 -27 -27 -55 -3 -23 -11 -45 -17 -49 -7 -4 -37 -1 -67 7 -68 18
-107 14 -111 -10 -2 -10 17 -50 42 -88 25 -38 46 -71 46 -74 0 -15 -25 0 -59
34 -47 48 -120 72 -165 55 -22 -8 -20 -27 4 -49 39 -36 11 -26 -50 16 -70 50
-80 46 -80 -31 0 -50 12 -65 128 -159 52 -43 66 -74 37 -85 -10 -4 -19 5 -28
27 -33 77 -56 73 -165 -27 -86 -79 -103 -82 -131 -29 -11 21 -10 22 11 14 38
-14 67 5 90 56 41 92 21 274 -33 303 -15 9 -29 5 -64 -16 -25 -14 -50 -34 -55
-44 -15 -29 -12 -75 10 -132 27 -70 15 -80 -55 -45 -68 33 -134 35 -202 6 -28
-12 -61 -19 -78 -16 -16 2 -41 0 -54 -5 -14 -5 -78 -18 -144 -29 -124 -21
-183 -39 -229 -71 l-28 -19 0 24 c0 25 -37 67 -59 67 -10 0 -12 -12 -8 -45 4
-44 3 -47 -37 -74 -80 -54 -140 -81 -184 -81 -41 0 -42 -1 -36 -26 6 -24 5
-25 -13 -15 -33 17 -113 111 -113 132 0 23 -3 23 50 4 49 -17 142 -20 171 -5
94 51 -167 218 -321 207 -20 -2 -26 3 -28 25 -3 23 -10 29 -43 38 -30 8 -44 8
-54 0 -10 -8 -19 -8 -34 -1 -33 18 -79 13 -93 -9 -7 -11 -23 -20 -36 -20 -12
0 -55 -16 -95 -35 -39 -19 -78 -35 -85 -35 -7 0 -26 -22 -43 -50 -21 -34 -60
-72 -125 -120 -90 -67 -95 -73 -89 -101 11 -47 -2 -64 -76 -105 -39 -21 -79
-50 -90 -65 -24 -34 -25 -93 -1 -138 27 -55 43 -59 114 -33 35 12 66 22 70 22
20 0 38 -36 38 -75 0 -53 38 -105 77 -105 56 0 124 79 145 169 9 40 8 54 -6
81 -16 33 -15 35 13 97 47 99 144 193 200 193 19 0 17 -8 -25 -89 -77 -146
-71 -231 15 -217 90 15 178 18 185 7 12 -18 -72 -51 -132 -51 -49 0 -53 -2
-47 -20 21 -67 -1 -110 -56 -110 -22 0 -31 -8 -50 -47 -33 -66 -104 -104 -206
-111 -118 -8 -193 31 -193 100 0 49 -15 30 -32 -43 -21 -85 -39 -109 -83 -109
-25 0 -46 -12 -91 -52 -121 -108 -198 -157 -272 -173 l-34 -7 31 -32 c58 -60
81 -160 47 -211 -13 -20 -25 -25 -56 -25 -21 0 -50 4 -63 9 -63 24 -136 -28
-144 -102 -13 -110 70 -227 159 -227 60 0 107 33 158 108 98 146 213 242 289
242 40 0 91 -21 115 -49 11 -11 25 -21 32 -21 21 0 71 -48 121 -116 54 -74 75
-79 83 -19 5 38 1 44 -60 115 -70 81 -116 148 -107 157 4 3 22 2 41 -1 44 -8
114 -78 203 -204 36 -51 76 -101 89 -111 20 -15 23 -25 17 -51 -5 -30 -4 -31
13 -21 10 6 30 19 43 29 l24 19 -24 32 c-30 40 -20 57 46 82 119 45 153 80
140 146 -10 52 48 133 95 133 9 0 42 -15 73 -34 l56 -34 -5 27 c-7 33 17 56
68 64 47 7 64 -15 44 -55 -13 -25 -12 -27 22 -50 41 -27 68 -62 78 -100 4 -21
0 -33 -20 -52 -31 -32 -75 -33 -136 -4 -91 43 -229 21 -304 -50 -55 -53 -55
-105 2 -147 23 -17 40 -19 114 -17 91 4 139 -10 152 -43 23 -61 -18 -165 -79
-200 -56 -34 -96 -32 -222 10 -157 53 -177 54 -243 11 -60 -40 -92 -44 -155
-20 -22 9 -68 26 -103 38 -34 12 -69 29 -77 37 -9 8 -20 43 -26 77 -6 35 -18
69 -26 77 -24 24 -82 17 -224 -26 -108 -33 -154 -42 -239 -46 -59 -3 -117 -12
-132 -19 -36 -18 -74 -76 -137 -205 -30 -62 -72 -130 -101 -163 -96 -110 -110
-160 -110 -396 l0 -176 33 -52 c186 -298 192 -304 292 -310 48 -3 84 2 156 24
115 34 220 37 294 10 28 -11 69 -25 93 -33 57 -20 72 -51 72 -151 0 -124 16
-188 64 -262 59 -90 76 -138 76 -218 0 -51 -7 -85 -26 -133 -33 -81 -33 -141
-1 -256 14 -48 31 -115 37 -148 7 -33 38 -116 70 -185 73 -160 71 -153 80
-235 10 -88 28 -105 111 -105 168 0 289 71 360 212 32 64 103 304 113 387 10
73 23 95 104 172 121 113 129 140 87 285 -29 100 -32 181 -8 253 13 43 41 79
148 196 89 97 144 166 168 212 46 89 119 254 114 260 -3 2 -45 -4 -95 -13
-137 -25 -190 -7 -234 79 -11 23 -47 79 -79 123 -73 102 -105 165 -114 228 -8
61 -17 82 -79 181 -27 43 -55 94 -63 112 -13 32 -12 34 13 43 53 21 69 1 195
-246 70 -137 129 -267 145 -320 15 -49 30 -92 33 -97 9 -10 143 26 215 58 131
58 253 153 315 246 l40 60 -60 75 c-68 84 -86 90 -129 43 -54 -59 -114 -34
-167 70 -34 68 -45 134 -28 158 15 20 38 8 89 -47 57 -61 136 -94 316 -129 85
-17 181 -41 213 -52 62 -23 137 -87 137 -117 0 -30 10 -32 51 -12 21 11 40 17
42 12 3 -4 5 -39 5 -79 2 -183 118 -483 187 -483 2 0 6 19 10 43 33 211 175
410 354 500 110 55 137 38 201 -121 41 -104 52 -116 102 -109 l38 5 0 -41 c1
-58 15 -117 34 -135 10 -11 42 -18 93 -21 75 -6 78 -7 83 -33 19 -103 143 -85
185 25 l16 43 -45 120 c-53 143 -61 180 -47 216 10 27 68 52 96 42 36 -14 196
56 291 128 30 23 70 62 87 87 27 39 32 56 33 111 1 36 5 73 10 84 4 11 -1 48
-14 92 -37 123 -28 164 42 201 15 9 12 11 -23 17 -94 15 -138 46 -113 82 12
17 97 72 117 76 18 3 20 -2 17 -39 -3 -48 6 -53 33 -23 44 49 96 4 136 -118
33 -102 43 -108 79 -49 18 29 18 30 -1 56 -29 39 -35 94 -15 144 31 82 93 129
200 152 37 8 130 103 175 178 49 83 81 179 81 243 0 48 -4 60 -29 85 -21 21
-39 29 -64 29 -89 0 -91 111 -3 188 116 102 254 140 400 111 89 -18 146 -1
257 77 104 74 132 79 137 27 2 -18 7 -33 12 -33 5 0 35 21 65 46 31 25 59 44
61 42 7 -8 -102 -132 -162 -185 -32 -29 -73 -65 -91 -81 -40 -37 -57 -97 -51
-190 5 -72 24 -112 53 -112 21 0 60 37 80 77 11 21 39 67 63 102 51 77 58 102
44 155 -10 38 -9 43 16 69 44 47 95 66 229 87 143 21 182 33 233 67 19 12 49
23 68 23 49 0 50 22 3 89 -22 33 -41 62 -41 66 0 5 25 5 55 2 48 -5 55 -3 55
12 0 27 35 54 62 48 13 -4 53 -24 90 -47 81 -49 120 -52 145 -12 9 15 28 37
42 49 36 30 21 41 -68 49 -70 7 -75 9 -112 49 -47 51 -132 98 -215 119 -81 21
-235 20 -289 0 -90 -36 -128 -31 -360 43 -97 31 -165 47 -220 50 -69 5 -84 10
-112 34 -38 32 -103 45 -156 31 -33 -9 -37 -8 -37 9 0 60 -190 35 -206 -27 -5
-19 -14 -22 -127 -29 -230 -16 -267 -6 -278 75 -8 62 -28 73 -114 66 -198 -18
-210 -18 -253 -3 -32 11 -51 13 -72 5 -34 -11 -57 -1 -113 49 -37 33 -66 40
-74 17 -2 -5 9 -15 24 -21 28 -11 28 -11 -11 -12 -33 -1 -38 -4 -33 -21 4 -16
-2 -22 -36 -30 -23 -6 -49 -13 -59 -16 -30 -9 -31 17 -2 48 32 33 134 93 177
103 20 5 27 13 27 31 0 41 -38 55 -164 63 -118 7 -146 17 -146 52 0 29 -11 23
-57 -30z m-1807 -1765 c3 -8 -11 -38 -30 -66 -20 -29 -36 -58 -36 -65 0 -21
74 -105 98 -111 l23 -6 -22 -24 -21 -23 21 -44 c26 -54 26 -62 1 -87 -24 -24
-60 -26 -105 -5 -52 25 -70 91 -41 145 13 22 12 29 -11 68 -53 90 -49 177 11
213 37 22 104 26 112 5z m289 -46 c14 -43 -22 -84 -51 -59 -19 15 -18 22 7 53
25 31 36 33 44 6z"/>
<path d="M2536 6251 c-9 -14 15 -28 74 -43 44 -10 58 -19 68 -41 15 -32 29
-38 127 -60 57 -13 95 -14 200 -7 72 5 131 9 133 9 1 1 2 11 2 24 0 13 5 28
12 35 19 19 5 22 -37 7 -27 -10 -87 -14 -189 -15 l-148 0 -32 35 c-26 28 -44
37 -105 50 -84 17 -98 18 -105 6z"/>
<path d="M2819 6017 c-60 -40 -64 -99 -10 -159 l28 -31 159 -8 c137 -7 171
-12 247 -37 103 -34 113 -42 98 -70 -15 -27 -14 -39 1 -24 22 22 37 13 49 -28
11 -36 15 -40 45 -40 38 0 50 -12 29 -30 -12 -10 -20 -9 -40 4 -33 22 -48 20
-75 -9 -18 -19 -20 -27 -11 -39 10 -11 1 -14 -55 -18 -50 -3 -70 -9 -80 -23
-12 -16 -12 -21 1 -34 12 -13 22 -13 56 -4 49 13 108 -3 149 -41 14 -13 33
-26 43 -29 9 -4 16 -12 15 -19 -2 -7 15 -15 44 -19 26 -4 72 -19 103 -33 30
-13 55 -23 55 -20 0 3 -7 16 -16 29 -15 24 -15 26 6 43 32 26 22 55 -47 131
-54 60 -56 64 -38 77 28 21 43 17 88 -21 47 -40 80 -43 85 -7 2 13 14 27 28
32 13 5 24 14 24 19 0 13 -50 51 -67 51 -8 0 -28 9 -43 20 -16 11 -43 23 -62
26 -18 4 -41 14 -51 22 -16 14 -16 17 -1 40 16 25 16 26 -11 48 -28 22 -88 44
-120 44 -17 0 -17 1 -2 18 10 10 17 22 17 25 0 11 -35 8 -47 -4 -14 -14 -83 9
-83 27 0 44 -116 61 -142 22 -14 -20 -18 -21 -42 -10 -15 6 -35 12 -45 12 -22
0 -31 19 -31 61 0 27 -3 29 -36 29 -27 0 -43 -7 -65 -31 -18 -19 -29 -25 -29
-17 0 22 -33 48 -62 48 -14 0 -40 -10 -59 -23z m143 -124 c11 -14 -4 -24 -21
-14 -9 6 -11 16 -6 32 6 17 9 20 13 9 3 -8 9 -20 14 -27z"/>
<path d="M2582 5900 c-45 -42 -37 -100 14 -100 30 0 31 -23 4 -67 -22 -37 -22
-37 -66 -21 -26 9 -39 8 -73 -5 -78 -31 -203 -17 -240 26 -22 27 -131 20 -131
-8 0 -8 9 -17 21 -20 15 -5 18 -10 10 -18 -6 -6 -11 -26 -11 -44 0 -39 -16
-43 -32 -7 -18 39 -57 54 -142 54 -75 0 -105 13 -72 32 23 13 20 25 -10 41
-20 10 -34 11 -54 4 -21 -8 -39 -5 -92 16 -63 26 -144 37 -165 24 -6 -4 -32 1
-58 11 l-47 17 -79 -43 c-86 -47 -121 -48 -67 -1 28 24 30 28 13 29 -11 0 -35
-9 -54 -21 -23 -14 -44 -19 -63 -15 -32 6 -33 2 -13 -34 16 -29 20 -90 5 -90
-6 0 -16 20 -22 45 -10 36 -18 47 -38 52 -14 3 -52 14 -85 24 -33 11 -78 22
-100 26 -22 3 -45 9 -51 14 -11 9 -189 31 -264 33 -25 0 -55 7 -67 14 -12 6
-30 12 -40 12 -10 0 -31 7 -47 15 -21 11 -32 12 -42 4 -7 -6 -18 -8 -25 -4
-13 8 -86 -12 -109 -30 -8 -7 -31 -17 -50 -24 -19 -6 -48 -24 -65 -40 -16 -15
-48 -33 -70 -39 -69 -20 -73 -27 -35 -59 53 -44 113 -83 132 -83 25 0 33 -20
14 -38 -15 -15 -20 -15 -65 1 -47 16 -50 16 -100 -4 -28 -12 -51 -25 -51 -29
0 -4 11 -12 25 -18 14 -6 25 -19 25 -27 0 -34 99 -47 151 -20 27 14 30 14 36
-1 11 -30 -38 -80 -87 -89 -30 -5 -70 -49 -70 -76 0 -47 45 -99 85 -99 10 0
30 -11 47 -25 34 -29 101 -49 134 -41 20 5 24 3 24 -18 0 -39 -43 -80 -132
-127 -65 -34 -78 -44 -60 -47 24 -4 157 59 226 108 72 50 105 91 150 188 11
23 22 32 39 32 l25 0 -19 -36 c-10 -21 -16 -41 -13 -45 17 -27 90 14 96 54 4
31 39 33 82 3 20 -14 63 -30 94 -36 31 -5 98 -24 147 -41 50 -18 106 -32 125
-33 30 -1 38 -7 59 -45 15 -27 43 -55 77 -77 56 -36 67 -54 66 -116 -1 -32 4
-41 24 -50 25 -12 32 -32 14 -43 -16 -10 -11 -28 6 -21 8 3 24 1 35 -4 15 -9
17 -15 9 -29 -11 -22 1 -35 40 -44 31 -8 139 -113 146 -144 9 -33 -4 -47 -26
-28 -29 27 -35 3 -38 -175 -4 -188 5 -240 49 -281 16 -15 29 -33 29 -41 0 -28
62 -119 95 -141 19 -12 35 -28 35 -34 0 -7 9 -13 21 -13 15 0 25 -11 37 -42 9
-24 31 -72 49 -107 19 -37 31 -72 28 -82 -4 -12 7 -32 34 -61 22 -24 43 -56
46 -71 13 -49 105 -113 105 -72 0 8 -4 15 -9 15 -21 0 -177 300 -168 324 10
25 43 4 60 -37 12 -27 136 -215 223 -336 15 -22 24 -48 24 -72 0 -32 6 -43 43
-74 23 -20 92 -62 154 -92 98 -48 117 -54 151 -48 35 6 49 1 128 -45 49 -28
106 -56 126 -62 50 -15 99 -68 107 -115 6 -33 10 -38 32 -35 19 2 29 -4 37
-22 8 -17 26 -29 65 -40 68 -20 74 -20 85 0 14 24 44 13 66 -25 14 -25 20 -53
20 -102 1 -61 -2 -71 -35 -120 -48 -71 -65 -106 -80 -163 -10 -42 -9 -49 7
-68 19 -20 19 -21 -7 -40 l-26 -20 37 -86 c21 -48 58 -142 84 -210 25 -68 52
-132 59 -143 8 -10 43 -41 78 -68 35 -28 78 -63 96 -78 l32 -28 -9 -125 c-5
-69 -14 -204 -20 -300 -12 -186 -26 -264 -61 -332 -30 -57 -43 -242 -24 -330
8 -41 -1 -135 -16 -158 -8 -13 -11 -13 -20 3 -8 14 -14 16 -25 6 -16 -13 -20
-64 -4 -54 11 7 80 -59 80 -76 0 -5 -9 -9 -20 -9 -11 0 -20 -6 -20 -12 -2 -51
-9 -130 -14 -146 -5 -16 0 -21 24 -25 38 -8 82 -50 74 -71 -11 -28 25 -18 40
12 8 15 23 36 35 46 12 11 21 29 21 42 0 12 11 36 25 52 14 17 25 34 25 38 0
5 18 31 39 58 l39 49 -34 32 c-19 18 -34 39 -33 46 1 28 15 50 39 62 19 9 26
22 28 50 3 30 9 40 28 47 28 11 29 17 10 39 -8 9 -16 25 -18 35 -2 15 5 21 32
27 35 7 70 40 70 65 0 18 13 24 87 40 113 23 140 73 83 152 -32 45 -30 49 20
29 17 -8 42 -12 55 -9 60 11 155 134 212 273 19 47 21 62 12 88 -14 40 -7 49
98 118 50 33 98 57 124 61 34 6 49 15 66 41 43 64 65 141 75 270 l10 123 45
56 c56 69 93 145 93 194 0 32 -7 42 -57 86 -74 63 -85 68 -163 77 -73 8 -88
15 -146 62 -51 41 -75 42 -116 3 -19 -19 -41 -30 -59 -30 -16 0 -29 2 -29 4 0
2 16 13 35 25 22 13 35 28 35 41 0 30 -31 25 -81 -14 -24 -19 -45 -33 -48 -30
-8 7 55 88 78 100 l21 11 -25 33 c-14 19 -25 45 -25 58 0 50 -75 100 -174 117
-31 5 -56 22 -114 78 -41 40 -80 84 -88 98 -13 25 -16 26 -82 21 -46 -3 -72
-1 -76 7 -4 6 -16 11 -27 11 -23 0 -81 28 -91 44 -12 19 -69 -55 -63 -81 7
-28 -11 -30 -25 -3 -8 15 -7 27 5 49 30 59 14 67 -38 21 -19 -17 -44 -30 -56
-30 -17 0 -27 -12 -43 -47 -11 -27 -22 -50 -24 -52 -3 -3 -18 6 -35 18 -27 20
-38 22 -92 16 -60 -6 -63 -6 -92 25 -29 31 -30 33 -27 124 2 70 -1 96 -12 105
-7 6 -43 14 -80 18 -36 3 -70 11 -75 17 -5 7 -3 31 6 61 44 155 39 181 -30
165 -50 -11 -73 -33 -82 -76 -7 -40 -32 -54 -96 -54 -52 0 -74 12 -103 58 -37
59 -49 130 -41 235 7 87 9 94 41 124 54 50 85 56 186 34 48 -10 89 -16 92 -14
3 3 1 14 -5 25 -8 14 -7 24 2 35 11 12 27 14 89 8 88 -8 115 -27 130 -89 14
-56 49 -123 68 -131 35 -13 36 13 8 133 -16 64 -31 122 -33 128 -3 9 58 83
164 198 28 30 32 57 18 132 -10 54 10 69 29 23 l14 -33 11 40 c13 49 75 124
102 124 43 0 59 18 54 58 -4 27 -1 43 12 59 16 19 185 93 213 93 7 0 -5 -15
-24 -34 -34 -31 -48 -66 -27 -66 5 0 31 15 59 33 50 32 101 64 134 82 10 5 18
15 18 22 0 21 -29 15 -65 -13 -36 -27 -55 -25 -55 7 0 16 -5 18 -25 13 -18 -4
-30 1 -50 21 -30 33 -32 45 -6 45 10 0 24 7 31 16 11 12 10 18 -3 31 -14 14
-22 15 -59 4 -24 -7 -60 -26 -81 -43 -58 -46 -69 -27 -14 25 66 62 103 77 215
86 92 8 211 39 241 64 17 14 9 96 -10 108 -8 5 -23 7 -34 4 -11 -3 -38 -8 -60
-11 -40 -7 -40 -7 -22 14 10 11 34 24 54 29 l34 8 -56 33 c-31 17 -62 32 -69
32 -7 0 -21 17 -32 38 -10 20 -29 51 -41 67 -11 17 -27 50 -34 74 -7 23 -19
45 -27 48 -7 3 -28 -9 -47 -27 -20 -20 -44 -32 -59 -32 -15 0 -29 -4 -32 -9
-8 -14 -37 6 -56 38 -15 26 -16 32 -3 51 19 27 12 45 -28 66 -18 9 -47 27 -65
40 -44 33 -124 43 -158 21 -33 -21 -47 -61 -39 -109 3 -22 1 -44 -5 -51 -6 -7
-10 -17 -9 -21 1 -5 -1 -16 -5 -25 -4 -9 3 -33 18 -60 32 -55 32 -74 1 -141
-16 -34 -25 -71 -25 -104 0 -60 -15 -110 -36 -118 -9 -4 -35 12 -65 41 l-51
47 4 63 3 63 -35 6 c-19 3 -47 8 -61 10 -14 3 -61 25 -103 49 -43 24 -89 48
-104 53 -20 6 -29 18 -35 45 -8 32 -13 37 -38 37 -32 0 -49 23 -49 65 0 30 23
66 87 139 24 26 43 54 43 62 0 18 32 34 67 34 32 0 89 41 79 58 -3 6 -20 13
-36 17 -16 4 -32 10 -35 15 -8 14 49 22 78 11 24 -9 27 -16 27 -55 0 -32 -5
-48 -17 -55 -17 -10 -17 -12 2 -26 39 -31 67 -30 91 0 22 28 24 28 64 15 95
-31 60 40 -45 89 -35 17 -69 40 -75 51 -10 18 -8 20 25 20 34 0 120 33 131 51
2 5 -2 23 -11 40 -9 17 -14 41 -11 54 7 29 -13 51 -60 64 -48 13 -67 5 -61
-28 4 -18 -2 -38 -20 -63 -14 -21 -29 -38 -33 -38 -14 0 -28 25 -35 62 -4 20
-16 45 -27 55 -19 17 -21 17 -49 -15 -32 -36 -39 -39 -39 -17 0 9 -11 27 -25
41 -15 15 -25 36 -25 53 0 54 -71 95 -108 61z m308 -1310 c10 -5 29 -27 41
-47 30 -50 42 -58 114 -78 47 -13 56 -18 43 -26 -9 -5 -19 -23 -23 -40 l-7
-30 -24 26 c-13 14 -24 35 -24 46 0 14 -10 25 -30 32 -16 6 -30 15 -30 19 0
16 -66 40 -128 46 l-66 7 40 27 c42 29 65 33 94 18z m250 -100 c0 -5 -2 -10
-4 -10 -3 0 -8 5 -11 10 -3 6 -1 10 4 10 6 0 11 -4 11 -10z m-224 -57 c-13
-27 -27 -66 -32 -88 l-8 -40 -6 60 c-4 33 -5 64 -2 68 3 7 62 47 69 47 1 0 -8
-21 -21 -47z m295 -68 c-18 -8 -36 -15 -40 -15 -13 1 45 29 59 29 8 0 0 -6
-19 -14z m-101 -49 c0 -2 -12 -11 -27 -20 l-28 -17 24 20 c23 21 31 25 31 17z"/>
<path d="M5346 5593 c-38 -3 -55 -11 -76 -33 -15 -16 -39 -31 -53 -34 -15 -3
-39 -9 -54 -12 l-28 -6 31 -12 c16 -6 40 -21 53 -32 32 -30 71 -36 137 -18 60
15 154 61 154 75 0 4 -10 23 -22 43 -25 38 -24 38 -142 29z"/>
<path d="M10730 1956 c0 -8 -13 -25 -30 -38 -16 -12 -30 -29 -30 -39 0 -9 -7
-22 -15 -29 -10 -8 -13 -21 -8 -38 6 -25 5 -25 -41 -20 -30 4 -55 13 -67 27
-11 11 -22 21 -25 21 -13 0 -87 -87 -90 -105 -1 -11 -3 -24 -3 -30 -1 -5 -10
0 -20 13 -26 30 -31 28 -31 -16 0 -31 -7 -45 -37 -75 -21 -20 -56 -43 -78 -50
-57 -21 -167 -84 -187 -109 -24 -27 -23 -61 4 -108 25 -43 19 -63 -11 -36 -32
29 -32 3 0 -58 37 -70 69 -192 69 -263 0 -39 5 -58 20 -73 34 -34 63 -34 121
-1 30 16 73 33 97 37 23 4 63 20 90 37 46 30 83 40 189 53 41 5 60 2 97 -16
26 -12 54 -33 64 -47 9 -13 26 -36 37 -50 l21 -25 28 52 c19 35 31 49 38 42 7
-7 6 -23 -5 -50 -18 -44 -14 -56 14 -41 15 8 20 6 25 -8 3 -10 12 -31 21 -48
9 -16 25 -45 35 -64 10 -19 23 -38 30 -43 19 -11 86 -10 110 3 17 9 25 6 49
-17 l29 -28 33 33 c19 17 47 35 63 40 22 6 31 16 40 47 6 21 27 82 47 134 37
99 67 258 67 353 0 55 -1 57 -36 73 -34 16 -124 124 -124 149 0 6 -13 18 -29
28 -37 22 -70 89 -81 166 -5 36 -18 74 -34 97 -14 21 -33 61 -42 88 -17 50
-17 50 -35 28 -9 -12 -23 -55 -30 -94 -13 -75 -50 -180 -65 -185 -5 -2 -40 21
-79 50 -78 58 -87 79 -61 142 25 58 21 69 -26 83 -85 23 -118 26 -118 8z"/>
<path d="M630 1686 c0 -9 7 -16 16 -16 17 0 14 22 -4 28 -7 2 -12 -3 -12 -12z"/>
<path d="M677 1663 c-12 -11 -8 -23 8 -23 8 0 15 7 15 15 0 16 -12 20 -23 8z"/>
<path d="M1086 1563 c-11 -11 -6 -23 9 -23 8 0 15 4 15 9 0 13 -16 22 -24 14z"/>
<path d="M935 1531 c-7 -12 12 -24 25 -16 11 7 4 25 -10 25 -5 0 -11 -4 -15
-9z"/>
<path d="M1170 1466 c0 -9 7 -16 16 -16 9 0 14 5 12 12 -6 18 -28 21 -28 4z"/>
<path d="M1375 1411 c-7 -12 12 -24 25 -16 11 7 4 25 -10 25 -5 0 -11 -4 -15
-9z"/>
<path d="M1510 1375 c0 -9 5 -15 11 -13 6 2 11 8 11 13 0 5 -5 11 -11 13 -6 2
-11 -4 -11 -13z"/>
<path d="M10882 879 c2 -6 8 -10 13 -10 5 0 11 4 13 10 2 6 -4 11 -13 11 -9 0
-15 -5 -13 -11z"/>
</g>
</svg>
